<svg width="66" height="66" viewBox="0 0 66 66" fill="none" xmlns="http://www.w3.org/2000/svg">
<path d="M62.2425 65.5162H4C4 65.5162 4.78167 61.8115 5.89634 58.0896C7.01101 54.368 9.31343 52.8101 12.2943 52.0457C15.2745 51.2796 27.0293 47.6198 27.0293 47.6198L33.0865 47.136L33.1216 47.134L33.1556 47.136L38.6203 47.5729C38.6203 47.5729 50.9665 51.2796 53.9466 52.0457C56.9279 52.8101 59.2303 54.368 60.3446 58.0896C61.4597 61.8115 62.2425 65.5162 62.2425 65.5162Z" fill="#83BF4F"/>
<path d="M50.0728 62.7769H42.9658C42.7997 62.7769 42.6653 62.9109 42.6653 63.0774V65.5162H43.2668V63.3784H49.7719V65.5162H50.3734V63.0774C50.3734 62.9109 50.2393 62.7769 50.0728 62.7769Z" fill="#BC1D5D"/>
<path d="M33.456 55.7933C33.456 56.1729 33.1488 56.48 32.7693 56.48C32.3902 56.48 32.083 56.1729 32.083 55.7933C32.083 55.4142 32.3902 55.107 32.7693 55.107C33.1488 55.107 33.456 55.4142 33.456 55.7933Z" fill="#EFE1F3"/>
<path d="M33.456 59.4356C33.456 59.8147 33.1488 60.1223 32.7693 60.1223C32.3902 60.1223 32.083 59.8147 32.083 59.4356C32.083 59.0564 32.3902 58.7488 32.7693 58.7488C33.1488 58.7488 33.456 59.0564 33.456 59.4356Z" fill="#EFE1F3"/>
<path d="M33.456 63.0774C33.456 63.4565 33.1488 63.7641 32.7693 63.7641C32.3902 63.7641 32.083 63.4565 32.083 63.0774C32.083 62.6983 32.3902 62.3907 32.7693 62.3907C33.1488 62.3907 33.456 62.6983 33.456 63.0774Z" fill="#EFE1F3"/>
<path d="M33.1558 47.1308V47.1359L33.1218 47.134L33.1558 47.1308Z" fill="#4C3FA0"/>
<path d="M33.1206 47.134L33.0862 47.1359V47.1309L33.1206 47.134Z" fill="#4C3FA0"/>
<path d="M38.5232 49.0585C38.5232 49.0585 37.0158 51.8799 32.8014 51.8799C28.7296 51.8799 27.0146 48.9182 27.0146 48.9182L27.264 46.889L27.3058 46.5478L27.697 43.3519L37.7709 43.6333L37.9393 44.8488L37.9948 45.2467L38.5232 49.0585Z" fill="#F36073"/>
<path d="M27.3058 46.5477C27.3058 46.5477 23.7148 47.1531 21.0637 49.4587C21.0637 49.4587 21.8399 53.9951 27.0146 58.4839L32.8013 51.8799C32.8013 51.8799 28.9317 50.4104 27.3058 46.5477Z" fill="#397003"/>
<path d="M38.15 46.5477C38.15 46.5477 41.741 47.1531 44.392 49.4587C44.392 49.4587 43.6158 53.9951 38.4407 58.4839L32.6548 51.8799C32.6548 51.8799 36.5241 50.4104 38.15 46.5477Z" fill="#397003"/>
<path d="M37.9392 44.8488C35.6568 46.783 31.9649 47.5193 27.2639 46.8889L27.3057 46.5477L27.697 43.3519L37.7708 43.6333L37.9392 44.8488Z" fill="#2B2B4E"/>
<path d="M23.914 35.0353C21.6609 38.1807 16.8082 36.0554 17.1389 31.88C17.4387 28.0928 21.6687 28.6935 21.6687 28.6935L23.914 35.0353Z" fill="#F03655"/>
<path d="M21.8398 35.1154C21.7046 35.1154 21.5815 35.0236 21.5479 34.8864C21.1086 33.0944 19.2478 31.4212 19.2287 31.4044C19.1051 31.2942 19.0938 31.1043 19.204 30.98C19.3146 30.8561 19.5046 30.8447 19.6285 30.955C19.7106 31.028 21.6475 32.7673 22.1322 34.7429C22.1716 34.9044 22.0728 35.0673 21.9117 35.1068L21.8398 35.1154Z" fill="#C82942"/>
<path d="M21.0638 33.4129L20.9685 33.3973C20.145 33.1217 19.3578 33.289 19.35 33.291C19.1878 33.3265 19.0272 33.2241 18.9916 33.0623C18.9557 32.9005 19.0569 32.7403 19.2191 32.7039C19.2574 32.6949 20.1716 32.4964 21.1592 32.827C21.3167 32.8798 21.4019 33.0502 21.3492 33.2077C21.3069 33.3336 21.1897 33.4129 21.0638 33.4129Z" fill="#C82942"/>
<path d="M40.5999 35.0353C42.8526 38.1807 47.7057 36.0554 47.3754 31.88C47.0752 28.0928 42.8452 28.6935 42.8452 28.6935L40.5999 35.0353Z" fill="#F03655"/>
<path d="M42.6743 35.1154L42.6028 35.1068C42.4414 35.0673 42.3425 34.9044 42.382 34.7433C42.8666 32.7673 44.8036 31.028 44.8853 30.955C45.01 30.8447 45.1999 30.8561 45.3097 30.98C45.4203 31.1043 45.409 31.2942 45.2855 31.4044C45.2663 31.4212 43.4056 33.0944 42.9663 34.8864C42.9323 35.0236 42.8095 35.1154 42.6743 35.1154Z" fill="#C82942"/>
<path d="M43.4502 33.4129C43.3243 33.4129 43.207 33.3336 43.1648 33.2077C43.1121 33.0502 43.1969 32.8798 43.3544 32.827C44.3424 32.4964 45.257 32.6953 45.2949 32.7039C45.4571 32.7403 45.5591 32.9009 45.5224 33.0631C45.4868 33.2249 45.325 33.3265 45.164 33.291C45.1518 33.2882 44.3667 33.1225 43.5455 33.3973L43.4502 33.4129Z" fill="#C82942"/>
<path d="M20.7713 24.0946C20.7713 24.0946 19.6707 30.9198 22.523 37.5945C25.1084 43.6442 28.5478 45.53 32.2072 45.5875C36.3696 45.6528 45.0853 43.2456 43.706 23.4966C42.7739 10.1519 21.8731 10.6228 20.7713 24.0946Z" fill="#F36073"/>
<path d="M22.7612 36.3274H28.5459V33.661H22.7612V36.3274Z" fill="#F14763"/>
<path d="M40.0731 36.3274C38.4758 36.3274 37.1809 35.7302 37.1809 34.9942C37.1809 34.2575 38.4758 33.6611 40.0731 33.6611C41.6705 33.6611 42.9653 34.2575 42.9653 34.9942C42.9653 35.7302 41.6705 36.3274 40.0731 36.3274Z" fill="#F14763"/>
<path d="M44.1984 28.9961C44.1984 28.9961 44.3962 33.9382 42.9313 40.1248C40.5828 50.0418 32.523 48.7204 32.523 48.7204C32.523 48.7204 24.6202 50.0418 22.2713 40.1248C20.8064 33.9382 20.1741 29.3216 20.1741 29.3216L22.0255 26.8703C22.0255 26.8703 22.9271 35.414 26.1976 36.8945C26.1976 36.8945 27.6512 34.6839 32.523 36.7499C37.3943 34.6839 39.0054 36.8945 39.0054 36.8945C42.2755 35.414 42.5526 27.192 42.5526 27.192L44.1984 28.9961Z" fill="#2B2B4E"/>
<path d="M23.2363 19.9576C23.2363 19.9576 24.0148 25.0799 21.8402 26.9528V31.1797L20.5626 31.5627C20.5626 31.5627 19.4491 25.9128 19.0227 22.7669C18.1972 16.6742 23.914 15.9019 23.914 15.9019L23.2363 19.9576Z" fill="#2B2B4E"/>
<path d="M41.1567 19.9576C41.1567 19.9576 40.3782 25.0799 42.5532 26.9528V31.1797L43.8308 31.5627C43.8308 31.5627 44.9443 25.9128 45.3707 22.7669C46.1962 16.6742 40.479 15.9019 40.479 15.9019L41.1567 19.9576Z" fill="#2B2B4E"/>
<path d="M19.8249 19.63C19.8249 19.63 15.9982 12.8717 25.0633 10.3981C31.3843 8.67294 39.9389 10.4895 42.674 5.99999C42.674 5.99999 43.4392 9.06924 41.9275 11.0395C41.9275 11.0395 46.0508 9.80244 47.196 7.37456C47.196 7.37456 48.6159 11.1766 46.417 14.1087C46.417 14.1087 48.1121 14.6586 49.6238 13.4673C49.6238 13.4673 49.4843 21.7585 43.3454 21.3005C43.3454 21.3005 42.0483 20.3171 39.8037 19.63C37.5587 18.943 35.737 22.4007 29.8944 20.9347C24.6873 19.6281 22.5424 18.8026 19.8249 19.63Z" fill="#2B2B4E"/>
<path d="M32.7243 42.2665C31.8664 42.2665 31.1894 41.9672 31.1445 41.9468C31.0183 41.8898 30.9624 41.7413 31.0194 41.615C31.0765 41.4892 31.2246 41.4333 31.3509 41.4899C31.3727 41.4997 32.9158 42.1739 34.1532 41.3594C34.2685 41.2832 34.424 41.3152 34.5002 41.4309C34.5764 41.5466 34.544 41.7018 34.4287 41.778C33.8632 42.1501 33.2581 42.2665 32.7243 42.2665Z" fill="#3A436E"/>
<path d="M33.612 35.6575L33.5917 35.6567L31.7594 35.5094C31.6214 35.498 31.5187 35.3772 31.5296 35.2393C31.5409 35.1013 31.6617 34.9977 31.7997 35.0095L33.3318 35.133L32.8538 30.4746C32.8397 30.337 32.9397 30.2139 33.0777 30.1998C33.2157 30.1854 33.3384 30.2858 33.3525 30.4234L33.8609 35.3812C33.8688 35.4554 33.8434 35.5289 33.791 35.582C33.7437 35.6305 33.6792 35.6575 33.612 35.6575Z" fill="#F03655"/>
<path d="M28.7922 37.9314C31.0458 38.2827 33.3427 38.4352 36.412 37.8247C36.412 37.8247 36.1458 41.1057 32.5005 41.1202C29.4004 41.1327 28.7922 37.9314 28.7922 37.9314Z" fill="#EFE1F3"/>
<path d="M28.6112 30.4492C28.6112 31.318 28.2164 32.0227 27.729 32.0227C27.2421 32.0227 26.8469 31.318 26.8469 30.4492C26.8469 29.58 27.2421 28.8757 27.729 28.8757C28.2164 28.8757 28.6112 29.58 28.6112 30.4492Z" fill="#2B2B4E"/>
<path d="M37.9949 30.4492C37.9949 31.318 37.5998 32.0227 37.1128 32.0227C36.6255 32.0227 36.2307 31.318 36.2307 30.4492C36.2307 29.58 36.6255 28.8757 37.1128 28.8757C37.5998 28.8757 37.9949 29.58 37.9949 30.4492Z" fill="#2B2B4E"/>
<path d="M26.1643 27.0028C26.7834 26.6702 27.6878 26.2595 28.5672 26.1309C29.0397 26.0621 29.3363 25.5868 29.1757 25.1374L29.1429 25.0467C29.0268 24.7219 28.7043 24.5179 28.3612 24.5546C27.5764 24.6379 26.1862 24.9126 25.2794 25.8166C25.0828 26.0125 25.0148 26.3032 25.0981 26.5678C25.2388 27.0149 25.7512 27.2248 26.1643 27.0028Z" fill="#2B2B4E"/>
<path d="M38.7025 27.0028C38.083 26.6702 37.179 26.2595 36.2996 26.1309C35.8271 26.0621 35.5301 25.5868 35.6911 25.1374L35.7235 25.0467C35.84 24.7219 36.1624 24.5179 36.5052 24.5546C37.29 24.6379 38.6802 24.9126 39.5874 25.8166C39.7836 26.0125 39.8519 26.3032 39.7687 26.5678C39.6276 27.0149 39.1156 27.2248 38.7025 27.0028Z" fill="#2B2B4E"/>
</svg>
